<?xml version="1.0" encoding="utf-8"?>
<!-- Generator: Adobe Illustrator 21.0.1, SVG Export Plug-In . SVG Version: 6.00 Build 0)  -->
<svg version="1.1" id="Layer_1" xmlns="http://www.w3.org/2000/svg" xmlns:xlink="http://www.w3.org/1999/xlink" x="0px" y="0px"
	 viewBox="0 0 300 300" style="enable-background:new 0 0 300 300;" xml:space="preserve">
<style type="text/css">
	.st0{fill:#2E368F;}
	.st1{fill:#EB2325;}
	.st2{fill:#FFFFFF;}
	.st3{display:none;fill:#EB2325;}
</style>
<g>
	<polygon class="st0" points="219.8,117.8 186.2,103.5 140.2,123 167.5,132.2 	"/>
	<path class="st1" d="M190.8,96.8c0-4.4-0.8-9.1-3.1-12.1c-2.4-3.2-6.5-4.5-10.2-4.5c-2.4,0-4.7,0.8-6.6,2.2
		c-4.1-3.7-8.8-6.6-13.6-7.7c0.5-0.9,0.8-1.9,0.8-3c0-3.4-2.6-6.1-5.8-6.1s-5.8,2.7-5.8,6.1c0,1.1,0.3,2.2,0.8,3.1
		c-4.7,1-9,3.2-12.4,6.2c-0.1,0.1-0.3,0.2-0.4,0.4c-1.6,1.3-2.6,2.5-3.9,3.3c-0.1,0.1-1.5,0.1-1.9,0c-0.2-0.1-1.9-1.7-2.8-2.2
		c-1.1-0.7-2.4-1.6-4.1-1.6c-3.3,0-6.1,1.7-6.1,3.8c0,1.5,1.4,2.8,3.4,3.4l1.5,1v4h6.8c-0.6,2-0.9,4.2-0.9,6.3
		c0,13.9,12.2,24.7,26.7,25.7c7.7,0.6,16.4,1,23.2-1.9c3.3-1.4,7.5-3,9.4-7c0.9-1.8,1.1-4.6,0.8-7.2
		C189.2,105.9,190.9,101.6,190.8,96.8z M184,94.3c0,0.2,0.1,5.8,0.1,5.8h-0.9l-7.3-13h2.2c1.3,0,2.5,0.4,3.5,1.1
		C183.4,89.7,184.1,91.5,184,94.3z"/>
	<path class="st0" d="M159.2,118.4c0,4.2-14.7,10.7-33.2,10.7s-34.4-6.3-34.4-10.4c0-4.2,15.3-6.9,33.8-6.9S159.2,114.2,159.2,118.4
		z"/>
	<path class="st2" d="M156.5,117.5c0,2.2-13.3,5.6-30,5.6s-31-3.3-31-5.4c0-2.2,13.8-3.6,30.5-3.6S156.5,115.3,156.5,117.5z"/>
	<path class="st0" d="M149.8,97.9c-1.7,0.1-3.4,0.5-4.8,1.2c-8.1,1.1-15.7,1.6-19.9,1.6c-8,0-17.2-0.8-25.6-2.3
		c-0.5,1.8,0.4,9.8,4.8,15.2c1.9,2.3,4.3,4.1,7.1,5.4c0.7,0.3,1.4,0.6,2.1,0.9c7.1,2.3,15.1,2.3,22.2,0c0.7-0.3,1.5-0.6,2.2-1
		c2.1-1.1,4.1-2.4,5.6-4.1c0.4-0.5,0.9-0.9,1.3-1.4c1.3,0.4,2.7,0.7,4.2,0.6c5.5-0.2,10.1-4,10.4-8.5
		C159.4,101.1,155.2,97.7,149.8,97.9z M152.2,110.2c-0.2,0.1-0.3,0.1-0.5,0.2c-1.7,0.4-2.7,0.4-5.1,0.5c-0.1,0-0.2,0-0.4-0.1
		c1.7-3.3,2.3-7,2.5-9.5c0.5-0.1,1-0.2,1.6-0.2c3.3-0.1,5.8,1.9,5.6,4.5C155.8,107.7,154.3,109.4,152.2,110.2z"/>
	<ellipse class="st2" cx="124.1" cy="97.5" rx="24.7" ry="4.4"/>
	<path class="st0" d="M256.7,124.4l1.1-1.2l-98.6-91.1l0,0l-0.4-0.4c0.5-1.1,0.8-2.3,0.8-3.5c0-4.9-4-8.8-8.9-8.8s-8.9,3.9-8.9,8.8
		c0,1.3,0.3,2.5,0.8,3.5l0,0L42.1,124.4l1.1,1.2L25,136.4l15.3,15.9l12.2-17.5l1.5,1.5l96.3-88.7l0,0l0,0l95.7,87.6l1.5-1.5
		l12.2,17.5l15.3-15.9L256.7,124.4z"/>
	<rect x="46.3" y="229.6" class="st0" width="208.7" height="35"/>
	<ellipse class="st2" cx="132.6" cy="109.2" rx="6.1" ry="6.4"/>
	<ellipse class="st1" cx="133.2" cy="109.2" rx="3.5" ry="3.6"/>
	<circle class="st2" cx="138.3" cy="88.5" r="3"/>
	<circle class="st2" cx="169.8" cy="91.5" r="3"/>
	<circle class="st2" cx="175.8" cy="103.5" r="3"/>
	<circle class="st2" cx="167.5" cy="114.7" r="3"/>
	<circle class="st2" cx="154.3" cy="94.6" r="3"/>
	<ellipse class="st2" cx="159.7" cy="82.4" rx="1.1" ry="0.4"/>
	<ellipse class="st2" cx="164.3" cy="82" rx="0.7" ry="0.2"/>
	<ellipse class="st2" cx="143.7" cy="82.4" rx="1.1" ry="0.4"/>
	<ellipse class="st2" cx="138.3" cy="82" rx="0.7" ry="0.2"/>
	<path class="st1" d="M108.5,168.2v-22c-2.2-8.1-9.5-16.2-21.1-16.2c-11.7,0-18.1,7.4-21.1,15.1v23.1h-6v18.1h53.4v-18.1
		L108.5,168.2L108.5,168.2z M90.6,170.4h-6.1v-19.2c0-3.6,1.4-3.9,3-3.9s3,0.5,3,3.8L90.6,170.4L90.6,170.4z"/>
	<path class="st1" d="M142,130c-15.9,0-28.7,12.8-28.7,28.6s12.9,28.6,28.7,28.6s28.7-12.8,28.7-28.6S157.8,130,142,130z M142,170.1
		c-6.3,0-11.5-5.1-11.5-11.5c0-6.3,5.1-11.5,11.5-11.5c6.3,0,11.5,5.1,11.5,11.5C153.4,165,148.3,170.1,142,170.1z"/>
	<path class="st1" d="M103.2,190c-9,0-16.3,7.3-16.3,16.2c0,9,7.3,16.2,16.3,16.2s16.3-7.3,16.3-16.2
		C119.5,197.2,112.2,190,103.2,190z M103.2,212.7c-3.6,0-6.5-2.9-6.5-6.5s2.9-6.5,6.5-6.5s6.5,2.9,6.5,6.5S106.8,212.7,103.2,212.7z
		"/>
	<path class="st1" d="M200.7,211.9v-12.8c-1.2-4.7-5.5-9.4-12.3-9.4s-10.5,4.3-12.3,8.8v13.4h-3.5v10.5h31v-10.5H200.7z
		 M189.8,212.5h-3.1V202c0.1-2.1,0.6-2.3,1.5-2.3s1.6,0.3,1.6,2.2V212.5z"/>
	<path class="st1" d="M138.2,212.5c-3.3,0-6-2.7-6-6l0,0c0-3.3,2.7-6,6-6h4.5v-10c-2.3-0.1-4.8,0-6.1,0c-9,0-16.2,6.8-16.2,15.8
		c0,8.9,7.2,16.2,16.2,16.2h6.2v-9.9h-4.6V212.5z"/>
	<path class="st1" d="M60.3,190.4v32h10.9v-20.7c0-0.9,0.7-1.6,1.6-1.6s1.6,0.7,1.6,1.6v20.7h11v-32H60.3z"/>
	<path class="st1" d="M170.7,203.4c0-0.1,0-0.3,0-0.4c0-0.1,0-0.2,0-0.3l0,0v-12.3h-11v9.6c0,0.9-0.7,1.6-1.6,1.6s-1.6-0.7-1.6-1.6
		v-9.6h-10.9v12.3v2.3l0.1,0.1c1.4,4.1,6.6,7.1,12.5,6.5c0.5,0,1-0.1,1.5-0.2v1h-12v10h14.6c4.4,0,7.6-2.9,8.5-6.9l0,0v-11.1l0,0v-1
		H170.7z"/>
	<path class="st1" d="M218.1,199.4c-0.8,0-1.6,0.1-2.3,0.2v-9.2h-9.9v23.7c0,4.6,3.7,8.3,8.2,8.3h4.1c6.7,0,12.1-5.2,12.1-11.5
		C230.4,204.6,224.9,199.4,218.1,199.4z M217.5,212.7c-1.1,0-1.7-0.8-1.7-1.8s0.5-1.9,1.6-1.9s1.6,0.8,1.6,1.8
		C219.1,211.9,218.6,212.7,217.5,212.7z"/>
	<rect x="230.9" y="190.4" class="st1" width="9.9" height="32"/>
	<path class="st1" d="M240.9,145.5c-0.4-8.5-9.2-15.2-20-15.2c-5,0-9.9,1.5-13.7,3.9c-3.8-2.4-8.7-3.9-13.7-3.9
		c-10.8,0-19.7,6.8-20,15.2l0,0v40.7h17.8v-35.8c0-1.7,1.4-3.1,3.1-3.1s3.1,1.4,3.1,3.1v35.8h9.8h9.8v-35.8c0-1.7,1.4-3.1,3.1-3.1
		s3.1,1.4,3.1,3.1v35.8h17.8L240.9,145.5L240.9,145.5z"/>
</g>
<rect x="-383" y="-12" class="st3" width="297.5" height="283"/>
</svg>
